<svg version="1.1" id="Layer_1" xmlns="http://www.w3.org/2000/svg" xmlns:xlink="http://www.w3.org/1999/xlink" x="0px" y="0px"
   viewBox="0 0 717.493 249.476" style="enable-background:new 0 0 717.493 249.476;" xml:space="preserve">
<g id="ks68WG.tif">
  <g>
    <path style="fill:#ffffff;" d="M7.473,126.248c0-35.319-0.003-70.638,0.003-105.957c0.001-7.078,2.458-9.91,9.483-10.888
      c1.475-0.205,2.98-0.267,4.471-0.268C71.743,9.122,122.056,9.08,172.369,9.149c16.473,0.022,32.593,2.023,47.139,10.608
      c21.017,12.405,32.191,31.024,34.598,55.169c1.709,17.139-1.453,33.023-11.638,47.194c-4.446,6.186-10.223,11.006-16.654,14.881
      c-3.601,2.17-3.272,3.863-1.377,7.003c16.674,27.637,33.191,55.37,49.755,83.073c0.512,0.856,1.066,1.688,1.541,2.564
      c4.826,8.913,2.697,13.614-7.26,14.341c-8.618,0.63-17.314,0.23-25.975,0.241c-15.66,0.019-31.321-0.089-46.981,0.051
      c-6.129,0.055-10.297-2.24-13.246-7.793c-11.542-21.737-23.428-43.292-34.997-65.015c-4.064-7.63-9.61-11.709-18.674-11.361
      c-9.965,0.383-19.975-0.012-29.95-0.437c-4.519-0.193-5.58,1.52-5.61,5.775c-0.166,23.64-0.653,47.277-0.934,70.916
      c-0.05,4.192-2.086,6.515-5.956,7.36c-1.769,0.387-3.63,0.486-5.449,0.488c-20.158,0.032-40.317,0.032-60.475,0.015
      c-9.555-0.008-12.751-3.294-12.752-13.017C7.472,196.219,7.473,161.233,7.473,126.248z M118.007,107.443
      c5.659,0,11.322,0.126,16.977-0.028c10.234-0.278,20.341-1.427,28.713-8.087c11.625-9.249,10.121-24.192-2.97-31.137
      c-3.852-2.044-7.975-3.258-12.302-3.742c-17.759-1.986-35.581-0.436-53.365-0.951c-3.569-0.103-4.052,1.843-4.036,4.722
      c0.064,11.818,0.135,23.638-0.053,35.453c-0.051,3.239,1.17,3.885,4.068,3.825C102.692,107.336,110.35,107.442,118.007,107.443z"
      />
    <path style="fill:#ffffff;" d="M664.646,244.225c-10.996-0.001-21.992-0.08-32.987,0.031c-5.773,0.059-9.714-2.193-12.286-7.534
      c-3.75-7.785-8.038-15.309-11.91-23.037c-1.281-2.556-2.846-3.536-5.781-3.527c-34.486,0.106-68.973,0.099-103.46,0.016
      c-3.081-0.007-4.875,1.054-6.249,3.809c-3.851,7.724-7.985,15.306-11.921,22.988c-2.5,4.879-6.074,7.392-11.862,7.333
      c-19.824-0.205-39.655-0.339-59.474,0.032c-9.808,0.183-15.259-6.679-9.687-16.308c40.943-70.75,81.49-141.73,122.089-212.678
      c2.608-4.558,6.139-6.506,11.34-6.46c15.826,0.141,31.66,0.299,47.478-0.067c6.603-0.153,10.48,2.54,13.445,8.12
      c22.079,41.552,44.285,83.036,66.458,124.537c15.278,28.596,30.571,57.183,45.847,85.78c0.782,1.464,1.587,2.933,2.183,4.477
      c2.819,7.301-0.369,12.276-8.238,12.439c-9.326,0.194-18.659,0.048-27.988,0.05C669.311,244.227,666.979,244.226,664.646,244.225z
       M577.83,156.804c-9.455-18.144-18.576-35.645-28.043-53.812c-9.481,18.43-18.449,35.863-27.682,53.812
      C541.104,156.804,559.079,156.804,577.83,156.804z"/>
    <path style="fill:#ffffff;" d="M222.137,10.023c1.811-1.651,3.906-1.05,5.828-1.055c15.826-0.048,31.657,0.222,47.474-0.152
      c6.157-0.146,9.976,2.243,13.023,7.246c19.121,31.394,38.339,62.728,57.533,94.077c3.206,5.237,6.451,10.45,10,16.197
      c7.484-12.533,14.706-24.617,21.918-36.706c14.472-24.258,28.999-48.483,43.363-72.805c3.285-5.563,7.48-8.132,14.191-8.009
      c19.318,0.354,38.646,0.097,57.97,0.135c12.318,0.025,16.143,6.838,10.009,17.533c-39.695,69.212-79.428,138.403-118.942,207.719
      c-3.78,6.631-7.988,10.097-16.106,9.494c-10.272-0.763-20.662-0.568-30.965-0.049c-6.851,0.345-10.828-2.564-13.98-8.182
      c-15.949-28.429-32.046-56.776-48.088-85.153c-5.32-9.411-10.491-18.911-16.028-28.192c-1.82-3.051-1.864-5.586-0.677-8.81
      c8.158-22.159,8.368-44.302-1.241-66.081c-6.807-15.428-17.929-27.067-32.779-35.109c-0.732-0.396-1.442-0.833-2.145-1.279
      C222.384,10.77,222.363,10.553,222.137,10.023z"/>
  </g>
</g>
</svg>
